<?xml version="1.0" standalone="no"?>
<!DOCTYPE svg PUBLIC "-//W3C//DTD SVG 20010904//EN"
 "http://www.w3.org/TR/2001/REC-SVG-20010904/DTD/svg10.dtd">
<svg version="1.0" xmlns="http://www.w3.org/2000/svg"
 width="1024.000000pt" height="1024.000000pt" viewBox="0 0 1024.000000 1024.000000"
 preserveAspectRatio="xMidYMid meet">

<g transform="translate(0.000000,1024.000000) scale(0.100000,-0.100000)"
fill="#000000" stroke="none">
<path d="M0 5120 l0 -5120 5120 0 5120 0 0 5120 0 5120 -5120 0 -5120 0 0
-5120z m5254 3395 c31 -14 56 -31 56 -36 0 -5 5 -9 11 -9 5 0 30 -15 55 -34
26 -20 52 -32 60 -29 10 4 17 -2 21 -16 3 -13 11 -20 19 -17 8 3 13 0 11 -7
-1 -7 6 -11 15 -11 10 1 16 -2 15 -7 -1 -5 12 -17 28 -27 17 -9 32 -20 35 -23
3 -4 23 -16 45 -28 22 -11 36 -21 31 -21 -4 0 101 -73 235 -163 134 -90 271
-183 304 -206 33 -23 177 -120 320 -215 274 -182 492 -334 541 -376 32 -27 94
-110 113 -150 10 -21 8 -20 -11 5 -44 58 -158 154 -271 227 -40 26 -78 52 -84
58 -7 6 -39 26 -72 45 -33 20 -63 40 -66 45 -4 6 -10 8 -14 6 -4 -3 -37 18
-74 45 -39 28 -73 47 -80 43 -7 -4 -9 -4 -5 1 12 13 -118 93 -130 80 -3 -3 1
-5 8 -5 7 0 11 -2 8 -5 -12 -12 -57 7 -51 21 4 10 0 12 -11 8 -12 -5 -16 0
-16 16 0 17 -5 21 -19 17 -10 -2 -26 0 -36 5 -14 8 -15 12 -4 19 11 7 11 9 -3
9 -9 0 -24 3 -34 7 -11 4 -15 3 -11 -5 4 -6 2 -12 -5 -15 -7 -2 -5 -3 5 -1 10
1 30 -8 45 -21 22 -19 25 -26 15 -36 -11 -11 -13 -10 -13 1 0 7 -3 10 -6 7 -4
-4 -2 -13 5 -20 9 -12 3 -14 -33 -12 -25 0 -42 -3 -39 -8 3 -5 16 -6 30 -2 32
8 58 -21 40 -45 -9 -12 -9 -13 3 -2 27 24 45 10 54 -43 1 -5 7 -9 14 -8 7 2
12 -4 12 -12 0 -15 -23 -11 -47 8 -9 6 -13 6 -13 -1 0 -6 10 -18 22 -26 12 -9
17 -16 10 -16 -19 0 -54 40 -48 56 4 11 -2 13 -29 9 -23 -3 -35 1 -39 11 -3 8
-9 13 -13 12 -15 -4 -112 65 -106 75 3 6 2 8 -3 5 -12 -8 -162 86 -384 239
-189 130 -417 276 -452 289 -62 22 -163 21 -218 -4 -43 -18 -388 -243 -532
-345 -36 -26 -69 -47 -72 -47 -4 0 -16 -9 -28 -20 -27 -25 -45 -26 -27 -2 13
15 12 16 -3 4 -10 -8 -16 -18 -15 -22 1 -5 -41 -38 -94 -73 -74 -50 -99 -63
-108 -54 -9 9 -11 8 -6 -4 3 -9 -1 -22 -9 -29 -13 -10 -17 -9 -22 3 -5 13 -9
14 -24 4 -15 -9 -23 -7 -41 8 -12 11 -19 15 -16 8 4 -6 3 -23 -3 -38 -9 -23
-14 -26 -36 -21 -19 5 -24 4 -18 -5 5 -9 2 -10 -10 -6 -9 4 -15 3 -12 -2 3 -5
-14 -15 -39 -22 -25 -7 -45 -16 -45 -19 0 -3 14 -11 30 -18 17 -8 30 -19 30
-25 0 -8 -4 -7 -12 1 -16 16 -29 15 -23 -1 3 -6 -5 -18 -17 -26 -22 -13 -22
-13 -6 5 16 19 16 20 -2 32 -11 6 -26 9 -35 6 -8 -3 -15 -1 -15 5 0 7 8 14 18
18 9 3 25 15 36 26 15 16 16 21 5 28 -11 7 -11 9 2 9 24 0 32 70 11 88 -25 19
-30 15 -27 -30 1 -24 1 -36 -2 -27 -2 10 -14 19 -25 22 -26 7 -61 -10 -52 -25
7 -10 -13 -28 -31 -28 -5 0 -3 5 5 10 9 6 10 10 3 10 -6 0 -28 -16 -48 -36
-20 -19 -39 -33 -42 -31 -2 3 -14 0 -26 -7 -45 -24 -172 -110 -175 -118 -2 -4
-9 -8 -16 -8 -6 0 -42 -21 -79 -47 -37 -27 -88 -61 -114 -78 -67 -42 -106 -78
-158 -147 -25 -33 -45 -53 -45 -44 0 9 4 16 8 16 4 0 14 16 21 35 18 52 101
131 221 213 58 40 173 119 255 176 83 58 238 165 347 238 108 73 194 137 191
142 -4 5 -2 6 3 3 6 -3 66 33 134 79 69 47 171 115 227 152 57 37 103 73 103
80 0 6 6 12 13 12 19 0 207 126 230 153 10 12 16 16 12 9 -4 -7 11 -1 33 15
22 15 37 32 34 37 -3 5 0 6 6 2 6 -3 23 5 38 19 15 14 31 26 35 26 14 2 22 5
49 16 74 31 183 26 264 -12z m-65 -765 c24 -11 112 -66 195 -122 601 -403 967
-654 1006 -690 15 -13 35 -34 45 -48 15 -20 12 -18 -15 6 -33 30 -295 205
-350 234 -14 7 -47 29 -75 49 -27 20 -57 41 -66 46 -77 46 -302 195 -321 213
-10 8 -18 11 -18 6 0 -5 -4 -4 -8 1 -4 6 -24 19 -44 29 -21 11 -38 23 -38 27
0 5 -15 16 -32 25 -18 9 -42 25 -54 35 -11 11 -31 21 -43 24 -12 2 -33 13 -48
24 -14 12 -30 21 -36 21 -6 0 -2 -7 9 -15 12 -9 14 -14 5 -15 -7 0 -11 -6 -8
-13 3 -8 1 -20 -4 -28 -8 -12 -10 -12 -8 1 4 43 0 51 -22 39 -15 -8 -19 -8
-15 0 9 14 -14 14 -34 1 -13 -9 -13 -10 0 -10 21 0 72 -60 66 -77 -3 -8 2 -13
12 -13 10 0 27 -6 37 -14 19 -13 19 -15 3 -33 -14 -15 -15 -22 -5 -33 6 -7 -2
-3 -20 9 -17 12 -34 17 -37 12 -4 -5 12 -20 34 -32 22 -12 38 -25 35 -27 -5
-5 -102 53 -122 74 -12 12 -12 14 1 14 9 0 16 -4 16 -10 0 -13 20 -13 40 0 13
8 12 12 -4 27 -18 17 -18 17 -13 1 4 -12 1 -18 -8 -18 -8 0 -15 4 -15 8 0 5
-12 7 -27 5 -16 -2 -46 0 -68 4 -43 10 -67 2 -140 -47 -81 -54 -121 -75 -106
-57 7 9 10 17 6 17 -4 0 -2 6 4 13 6 8 7 17 3 22 -4 4 3 2 16 -4 21 -11 55 -3
53 12 -3 22 1 28 15 23 9 -3 25 1 37 9 15 10 17 15 7 15 -11 0 -12 2 -3 8 8 5
-1 8 -22 8 -21 0 -30 -3 -22 -8 9 -6 8 -8 -4 -8 -9 0 -21 -12 -27 -26 -12 -26
-36 -25 -26 1 3 8 -1 22 -10 30 -12 13 -13 21 -6 36 9 16 6 24 -17 45 -15 14
-29 21 -31 15 -2 -6 -11 -11 -20 -11 -11 -1 -8 -6 11 -16 15 -8 27 -19 27 -25
0 -6 -8 -6 -21 1 -11 7 -32 9 -47 5 -23 -6 -24 -5 -11 11 9 11 2 9 -18 -6 -18
-13 -33 -27 -33 -31 0 -4 -9 -11 -21 -14 -11 -4 -18 -9 -15 -12 8 -9 -21 -33
-41 -33 -10 0 -28 -6 -40 -13 -90 -51 -141 -85 -163 -107 -15 -14 -47 -36 -73
-49 -26 -13 -58 -34 -71 -46 -14 -13 -26 -21 -28 -19 -2 1 -62 -35 -133 -81
-72 -47 -159 -103 -195 -125 -101 -62 -173 -123 -208 -175 -18 -27 -32 -44
-32 -39 0 17 55 97 86 126 16 14 223 158 459 319 586 398 722 489 759 505 44
19 104 17 155 -6z m1118 -75 c2 -11 0 -14 -3 -7 -3 6 -15 12 -25 12 -12 0 -17
5 -14 11 11 16 40 6 42 -16z m-2242 -63 c-34 -31 -155 -114 -155 -105 0 4 14
17 30 28 16 11 30 23 30 28 0 4 -11 0 -25 -9 -23 -15 -25 -15 -19 0 6 16 22
21 57 18 10 -1 16 1 13 6 -8 14 20 40 49 45 17 2 32 5 35 6 2 0 -4 -7 -15 -17z
m-265 -12 c0 -5 -9 -10 -21 -10 -11 0 -17 5 -14 10 3 6 13 10 21 10 8 0 14 -4
14 -10z m1615 -50 c3 -5 1 -10 -4 -10 -6 0 -11 5 -11 10 0 6 2 10 4 10 3 0 8
-4 11 -10z m-630 -20 c-3 -5 -12 -10 -18 -10 -7 0 -6 4 3 10 19 12 23 12 15 0z
m45 0 c-8 -5 -19 -10 -25 -10 -5 0 -3 5 5 10 8 5 20 10 25 10 6 0 3 -5 -5 -10z
m-1049 -37 c13 -16 12 -17 -3 -4 -10 7 -18 15 -18 17 0 8 8 3 21 -13z m2605
-24 c3 -6 -5 -3 -20 6 -14 10 -26 19 -26 22 0 7 39 -17 46 -28z m-1371 11 c-3
-5 -10 -10 -16 -10 -5 0 -9 5 -9 10 0 6 7 10 16 10 8 0 12 -4 9 -10z m340 -50
c3 -6 -1 -7 -9 -4 -18 7 -21 14 -7 14 6 0 13 -4 16 -10z m-1645 -4 c0 -2 -7
-7 -16 -10 -8 -3 -12 -2 -9 4 6 10 25 14 25 6z m21 -42 c-28 -19 -54 -34 -58
-34 -4 0 13 14 40 31 26 17 47 36 47 41 0 5 5 6 11 3 6 -4 -11 -22 -40 -41z
m809 -14 c-8 -5 -19 -10 -25 -10 -5 0 -3 5 5 10 8 5 20 10 25 10 6 0 3 -5 -5
-10z m907 -17 c-9 -2 -14 -9 -11 -15 4 -7 2 -8 -5 -4 -15 10 -4 26 17 25 15
-1 15 -2 -1 -6z m-1787 -13 c0 -5 -2 -10 -4 -10 -3 0 -8 5 -11 10 -3 6 -1 10
4 10 6 0 11 -4 11 -10z m1170 -4 c0 -2 -7 -7 -16 -10 -8 -3 -12 -2 -9 4 6 10
25 14 25 6z m-55 -36 c-3 -5 -12 -10 -18 -10 -7 0 -6 4 3 10 19 12 23 12 15 0z
m-80 -56 c-26 -20 -55 -36 -55 -30 0 5 63 46 70 46 3 -1 -4 -8 -15 -16z
m-1175 2 c0 -2 -12 -11 -27 -20 l-28 -17 24 20 c23 21 31 25 31 17z m3625 -22
c9 -15 12 -23 6 -20 -11 7 -35 46 -28 46 3 0 12 -12 22 -26z m-3690 -24 c-3
-5 -12 -10 -18 -10 -7 0 -6 4 3 10 19 12 23 12 15 0z m1054 -83 c-2 -1 -13 -9
-24 -17 -19 -14 -19 -14 -6 3 7 9 18 17 24 17 6 0 8 -1 6 -3z m665 -112 c27
-14 91 -56 144 -93 54 -38 178 -124 277 -192 175 -121 305 -217 305 -226 0 -3
-19 9 -42 26 -24 17 -68 47 -98 67 -30 20 -108 72 -173 115 -66 43 -120 78
-122 78 -2 0 -64 40 -137 89 -150 100 -204 131 -231 131 -20 0 -57 -22 -355
-217 -304 -198 -322 -212 -366 -277 -14 -21 -26 -34 -26 -29 0 16 54 85 92
119 20 17 139 102 264 187 126 86 258 176 294 201 76 53 107 57 174 21z m1290
-161 c3 -8 2 -12 -4 -9 -6 3 -10 10 -10 16 0 14 7 11 14 -7z m549 -1747 c-16
-72 -34 -109 -85 -169 -21 -27 -34 -48 -29 -48 6 0 11 4 11 8 0 4 9 8 20 8 14
0 23 -10 29 -31 5 -16 10 -22 10 -12 2 31 -18 57 -37 50 -15 -6 -15 -5 -3 10
13 17 15 17 35 -1 24 -22 53 -25 60 -5 4 11 10 10 26 -4 14 -12 16 -19 8 -24
-7 -4 -16 -5 -20 -3 -4 3 -8 -4 -8 -15 0 -12 7 -21 15 -21 8 0 15 7 15 16 0
13 3 14 14 5 10 -8 16 -9 21 -1 3 5 0 10 -7 10 -8 0 -6 5 5 11 9 5 22 7 27 4
6 -4 7 1 3 11 -4 12 -3 15 5 10 7 -4 15 0 18 9 4 9 12 14 19 11 9 -3 11 3 8
17 -4 17 -2 19 5 8 8 -11 16 3 32 58 12 40 26 96 30 124 7 50 8 50 9 12 1 -57
-25 -158 -60 -232 -62 -131 -94 -155 -1024 -775 -468 -312 -877 -580 -910
-595 -51 -24 -72 -28 -145 -28 -109 1 -151 19 -370 168 -165 112 -380 257
-925 623 -532 358 -610 412 -672 473 -103 101 -149 220 -157 410 l-5 106 9
-85 c5 -47 11 -103 15 -125 8 -57 60 -180 75 -180 7 0 15 -6 18 -14 3 -9 0
-11 -8 -6 -9 6 -11 4 -6 -4 5 -7 15 -10 23 -7 8 3 12 2 9 -3 -3 -5 10 -23 29
-40 19 -17 35 -35 35 -40 0 -5 7 -12 16 -15 11 -4 15 -2 11 7 -4 10 4 14 26
14 18 0 26 -2 19 -4 -22 -8 -12 -31 18 -42 17 -5 30 -17 30 -27 0 -13 4 -12
19 7 l18 23 12 -22 c6 -12 19 -21 29 -21 16 1 16 2 0 6 -19 5 -22 12 -12 37 8
20 34 21 34 1 0 -21 24 -19 45 5 13 14 14 20 5 20 -7 0 -11 2 -8 5 8 8 38 -6
38 -17 0 -5 -3 -7 -7 -5 -5 3 -13 -1 -20 -8 -8 -9 -7 -16 6 -27 9 -8 23 -12
30 -10 8 3 7 8 -6 19 -17 14 -17 14 0 9 10 -3 23 -6 28 -6 6 0 7 -4 4 -10 -7
-12 5 -13 23 -1 11 6 10 11 -3 25 -9 9 -20 16 -25 16 -5 0 -15 6 -22 13 -35
34 -71 55 -84 50 -20 -7 -7 -23 14 -17 14 5 14 4 2 -4 -9 -7 -19 -7 -26 -2 -6
6 -13 7 -16 4 -3 -3 -9 0 -14 7 -4 7 -3 10 3 6 6 -4 16 0 23 8 11 14 7 19 -12
16 -5 0 -7 2 -6 7 1 4 -18 27 -43 52 -62 64 -101 148 -105 230 l-3 65 9 -60
c14 -88 61 -175 123 -229 56 -50 296 -229 417 -312 41 -28 74 -57 72 -63 -1
-7 2 -10 7 -6 6 3 56 -21 111 -55 55 -33 104 -60 108 -60 12 1 -42 40 -55 40
-7 0 -16 7 -21 16 -5 9 -12 14 -15 12 -15 -8 -96 73 -102 103 -4 17 -5 32 -3
35 3 2 245 -156 539 -352 294 -196 558 -368 588 -382 71 -33 148 -34 215 -4
27 12 320 203 652 424 549 366 659 435 623 392 -6 -7 -16 -11 -22 -7 -7 4 -8
0 -4 -11 6 -14 3 -17 -8 -12 -9 3 -14 2 -11 -3 3 -4 -3 -17 -14 -28 -10 -12
-16 -24 -12 -27 3 -4 -1 -4 -11 -1 -12 5 -19 0 -27 -19 -7 -19 -17 -26 -35
-26 -14 0 -25 -4 -25 -9 0 -5 -14 -23 -32 -40 -24 -24 -34 -28 -45 -19 -10 8
-12 8 -8 -3 3 -9 -11 -24 -37 -39 -23 -14 -49 -32 -58 -40 -8 -8 -40 -32 -70
-53 -141 -97 -121 -92 30 7 584 385 733 491 808 570 104 112 96 34 102 1026
l5 865 5 -840 c4 -650 2 -853 -7 -898z m-3326 1416 c-3 -10 -5 -2 -5 17 0 19
2 27 5 18 2 -10 2 -26 0 -35z m28 -1208 c21 -57 83 -160 92 -152 3 4 12 0 20
-8 8 -8 22 -15 32 -15 10 0 23 -11 29 -25 7 -16 17 -23 27 -19 8 4 17 -1 21
-10 3 -9 13 -16 21 -16 8 0 11 5 8 10 -12 19 42 10 60 -10 10 -11 23 -20 28
-20 5 0 15 -6 21 -14 16 -19 86 -29 86 -12 0 8 20 19 44 25 59 15 55 33 -22
80 -95 58 -197 150 -228 206 -23 42 -28 63 -30 135 l-3 85 8 -77 c10 -95 47
-174 98 -215 20 -15 78 -55 129 -88 52 -33 131 -85 176 -116 333 -227 755
-499 773 -499 12 0 131 73 266 162 877 580 851 561 884 641 l15 37 130 0 c76
0 130 -4 130 -10 0 -14 -54 -20 -155 -17 l-90 2 -19 -39 c-19 -40 -85 -112
-141 -154 -29 -22 -29 -22 -5 -16 24 6 24 6 5 -10 -26 -20 -6 -21 23 0 21 14
22 14 19 -8 -2 -24 0 -25 46 -14 22 5 27 4 21 -6 -6 -11 -5 -11 8 0 9 7 27 11
40 9 12 -2 17 -2 11 0 -15 5 -17 19 -4 27 5 3 14 -1 21 -9 10 -12 14 -13 26 0
8 8 22 11 31 8 10 -4 14 -2 10 4 -4 6 1 10 10 9 10 0 18 5 19 12 1 6 2 14 3
17 0 3 11 -3 23 -15 l22 -20 -35 -36 c-29 -31 -628 -436 -1139 -770 -194 -127
-178 -119 -198 -101 -9 8 -100 70 -202 137 -102 68 -269 179 -373 249 -103 69
-225 151 -271 181 -257 167 -384 257 -426 299 -60 60 -107 156 -120 246 -5 40
-9 287 -8 585 l2 515 6 -555 c6 -505 8 -559 25 -605z m602 1028 c-3 -10 -5 -4
-5 12 0 17 2 24 5 18 2 -7 2 -21 0 -30z m1792 -313 c339 1 618 -2 621 -7 3 -4
-283 -9 -635 -11 l-640 -3 -37 -83 c-21 -46 -38 -88 -38 -95 0 -13 -19 -12
275 -11 549 2 887 0 895 -5 4 -3 10 0 12 6 2 7 12 7 31 0 14 -6 54 -11 87 -12
33 -1 58 -5 54 -8 -7 -8 -1405 -8 -1401 0 1 3 27 60 57 126 52 117 55 121 79
112 14 -6 283 -9 640 -9z m-1279 -3 c0 -8 -6 -14 -12 -14 -7 0 -123 -3 -258
-6 -265 -6 -214 5 95 22 88 4 163 9 168 9 4 1 7 -4 7 -11z m0 -207 l0 -30
-104 0 c-63 0 -107 4 -111 11 -5 7 26 10 97 8 98 -2 103 -1 106 20 5 31 12 26
12 -9z m-273 -67 c-3 -10 -5 -2 -5 17 0 19 2 27 5 18 2 -10 2 -26 0 -35z
m-240 -65 c-2 -13 -4 -3 -4 22 0 25 2 35 4 23 2 -13 2 -33 0 -45z m287 -43
c11 -16 32 -40 46 -53 24 -22 364 -250 425 -286 l30 -17 90 59 c50 32 142 93
206 135 64 42 128 90 143 107 l26 31 192 -8 193 -8 -75 -75 c-58 -57 -160
-132 -429 -312 l-354 -238 -36 28 c-20 16 -92 66 -161 112 -365 245 -427 288
-471 328 -52 47 -110 149 -108 191 1 25 1 25 9 -4 12 -47 26 -78 49 -105 46
-56 77 -81 99 -83 16 -1 19 -4 10 -15 -6 -7 -7 -12 -2 -11 13 3 82 -31 123
-60 19 -14 31 -20 27 -13 -4 7 -3 12 3 12 5 0 13 -4 16 -10 3 -5 14 -10 24
-10 11 0 22 -10 25 -22 6 -21 8 -21 14 -5 7 16 9 16 27 3 11 -9 29 -16 40 -16
19 -1 19 -1 2 -14 -15 -12 -16 -15 -2 -26 13 -11 14 -10 9 4 -5 13 0 16 27 16
26 0 30 -3 19 -10 -8 -5 -10 -10 -5 -10 6 0 16 4 24 9 10 6 20 3 33 -12 17
-21 19 -21 28 -4 6 9 18 17 25 17 15 0 21 25 8 33 -5 2 -3 3 3 1 6 -1 17 3 23
9 8 8 11 8 11 0 0 -6 -3 -13 -7 -16 -5 -2 -2 -2 5 -1 7 2 23 -1 37 -6 35 -13
31 -5 -11 19 -19 12 -40 18 -46 15 -6 -4 -8 -2 -5 4 8 12 -200 155 -214 147
-5 -4 -8 -2 -7 2 2 5 -25 33 -60 62 -72 60 -109 111 -117 161 l-5 35 11 -30
c7 -16 21 -43 33 -60z m-44 -241 c0 -2 -9 0 -20 6 -11 6 -20 13 -20 16 0 2 9
0 20 -6 11 -6 20 -13 20 -16z m1957 -76 c-3 -7 -5 -2 -5 12 0 14 2 19 5 13 2
-7 2 -19 0 -25z m-1602 -39 c11 -17 2 -18 -19 -3 -17 12 -17 14 -4 14 9 0 20
-5 23 -11z m1565 -64 c-18 -42 -22 -46 -37 -34 -14 12 -14 14 -1 17 9 2 24 18
34 37 26 48 28 37 4 -20z m-273 -15 c1 -11 -2 -20 -8 -20 -10 0 -12 23 -2 33
9 9 9 10 10 -13z m-2074 -157 c-7 -2 -19 -2 -25 0 -7 3 -2 5 12 5 14 0 19 -2
13 -5z m2627 -107 c0 -3 -4 -8 -10 -11 -5 -3 -10 -1 -10 4 0 6 5 11 10 11 6 0
10 -2 10 -4z m-108 -102 c-12 -8 -20 -20 -17 -25 4 -5 -1 -9 -10 -9 -9 0 -27
-7 -40 -16 -45 -29 -26 -6 27 35 29 22 55 38 57 35 3 -2 -5 -11 -17 -20z
m-3132 -80 c0 -2 -7 -4 -15 -4 -8 0 -15 4 -15 10 0 5 7 7 15 4 8 -4 15 -8 15
-10z m3025 6 c-3 -5 -16 -15 -28 -21 -21 -10 -21 -9 2 10 25 23 36 27 26 11z
m-3991 -2077 c72 -64 143 -127 157 -140 l26 -23 -5 109 c-2 60 -2 121 2 135 6
24 11 26 56 26 l50 0 0 -250 c0 -137 -3 -250 -6 -250 -3 0 -73 61 -155 135
-82 74 -154 135 -159 135 -5 0 -7 -34 -3 -83 3 -46 3 -105 -1 -130 -7 -45 -9
-47 -41 -47 -68 0 -65 -13 -65 256 0 134 3 244 6 244 3 0 65 -53 138 -117z
m2664 102 c105 -32 172 -126 172 -243 0 -72 -15 -114 -59 -164 -73 -84 -219
-103 -317 -42 -141 86 -154 292 -27 404 65 57 141 72 231 45z m387 -26 c104
-93 268 -229 275 -229 6 0 7 55 3 130 l-6 130 57 0 56 0 0 -250 c-1 -137 -4
-250 -7 -250 -5 0 -82 65 -225 193 -48 42 -92 77 -96 77 -5 0 -7 -47 -4 -104
2 -58 2 -116 -2 -131 -6 -24 -10 -26 -54 -23 l-47 3 -3 248 c-3 270 -5 258 53
206z m873 -158 c83 94 176 194 184 197 5 2 8 -109 8 -248 l0 -251 -47 3 -48 3
-3 118 c-1 64 -6 117 -10 116 -4 0 -36 -38 -72 -84 -36 -46 -68 -81 -71 -77
-3 4 -35 43 -70 87 l-64 80 -3 -123 -3 -122 -49 0 -50 0 0 253 1 252 125 -128
124 -129 48 53z m1123 57 c81 -70 150 -128 154 -128 4 0 5 57 4 128 l-4 127
53 3 52 3 0 -251 0 -252 -39 34 c-21 18 -94 82 -162 143 l-124 109 -5 -134 -5
-135 -47 -3 -48 -3 0 251 c0 198 3 250 13 244 6 -5 78 -66 158 -136z m-5353
85 l-3 -48 -142 -3 -143 -3 0 -44 0 -45 116 0 c102 0 115 -2 110 -16 -3 -9 -6
-31 -6 -50 l0 -34 -110 0 -110 0 0 -45 0 -45 146 0 145 0 -3 -52 -3 -53 -42 0
c-24 1 -110 2 -193 3 l-150 2 0 240 0 240 196 0 195 0 -3 -47z m824 32 c5 -23
132 -294 138 -295 3 0 36 70 74 155 l69 155 53 0 c31 0 54 -4 54 -10 0 -15
-244 -510 -251 -510 -6 0 -217 420 -243 483 l-15 37 59 0 c44 0 59 -4 62 -15z
m628 -214 c0 -126 -3 -236 -6 -245 -4 -11 -19 -16 -49 -16 -39 0 -43 3 -48 28
-3 15 -3 125 0 245 l6 217 49 0 48 0 0 -229z m492 197 c71 -54 89 -155 43
-235 -14 -23 -32 -43 -40 -43 -24 0 -18 -22 30 -99 25 -40 45 -75 45 -77 0 -2
-24 -4 -53 -4 -62 0 -68 5 -117 93 -32 57 -33 58 -74 55 l-41 -3 -3 -73 -3
-73 -47 3 -47 3 -3 170 c-2 94 0 203 3 243 l7 74 132 -4 c126 -3 134 -4 168
-30z m504 13 c101 -46 123 -179 43 -263 l-39 -41 45 -74 c25 -40 45 -77 45
-81 0 -4 -24 -8 -54 -10 l-54 -2 -30 47 c-17 27 -36 60 -43 76 -11 23 -18 27
-55 27 l-43 0 -3 -72 -3 -73 -47 -3 -48 -3 0 245 0 246 123 0 c97 0 130 -4
163 -19z m2554 -31 l0 -50 -145 0 -145 0 0 -45 0 -45 110 0 110 0 0 -50 0 -50
-110 0 -110 0 0 -45 0 -45 43 -2 c23 -1 90 0 150 1 l107 3 0 -51 c0 -44 -3
-51 -20 -51 -11 0 -99 -2 -195 -3 -134 -3 -178 -1 -186 9 -10 12 -12 434 -1
462 3 9 52 12 198 12 l194 0 0 -50z m1150 0 l0 -50 -75 0 -75 0 0 -189 c0
-120 -4 -192 -10 -196 -6 -4 -29 -4 -52 0 l-41 7 5 189 5 189 -73 0 -74 0 0
50 0 50 195 0 195 0 0 -50z m-4295 -698 c74 -39 73 -37 37 -75 -33 -34 -34
-34 -65 -19 -116 58 -237 -10 -237 -132 0 -69 33 -118 96 -142 42 -16 51 -16
103 -3 49 12 56 17 56 39 0 23 -4 25 -43 25 l-42 0 0 48 0 47 90 0 90 0 0 -94
0 -94 -48 -31 c-137 -88 -302 -49 -374 88 -31 59 -37 133 -17 206 14 52 101
138 155 153 57 16 153 8 199 -16z m337 -134 c3 -123 9 -171 21 -194 25 -49 87
-67 142 -42 48 22 55 52 55 233 l0 165 51 0 50 0 -3 -189 -3 -189 -30 -43
c-42 -59 -94 -84 -175 -84 -83 0 -144 33 -180 97 -23 40 -25 54 -28 211 -2 92
-1 174 2 182 4 10 20 15 49 15 l44 0 5 -162z m809 -73 c60 -126 112 -238 115
-247 5 -16 -2 -18 -45 -18 -51 0 -51 0 -73 45 l-22 45 -112 0 -112 0 -18 -45
-17 -45 -54 0 c-63 0 -63 -1 -8 110 18 36 63 133 100 215 37 83 73 156 78 163
6 7 21 12 35 10 21 -3 38 -33 133 -233z m499 224 c131 -28 182 -184 90 -280
l-38 -40 49 -81 c27 -45 49 -83 49 -85 0 -1 -26 -3 -58 -3 l-58 0 -43 75 -43
75 -44 0 -44 0 0 -75 0 -75 -50 0 -50 0 0 243 c0 134 3 247 7 250 10 11 177 8
233 -4z m584 -13 c100 -42 156 -126 156 -234 0 -108 -60 -189 -167 -228 -23
-8 -82 -13 -150 -14 l-113 0 0 243 c0 134 3 247 8 252 12 12 227 -3 266 -19z
m-2881 -197 c6 -9 7 -24 4 -33 -6 -14 -27 -16 -157 -16 -82 0 -150 3 -150 6 0
4 11 17 25 30 l25 23 -23 4 c-12 3 43 4 122 3 121 -1 145 -4 154 -17z m3375
-38 c9 -6 12 -11 5 -11 -15 0 -43 28 -43 43 0 7 5 4 11 -5 5 -10 17 -22 27
-27z m95 -8 c-13 -2 -35 -2 -50 0 -16 2 -5 4 22 4 28 0 40 -2 28 -4z"/>
<path d="M3994 7773 c5 -8 1 -13 -11 -13 -17 -1 -17 -2 1 -15 28 -21 47 -1 22
23 -11 9 -16 11 -12 5z"/>
<path d="M6145 7730 c3 -5 8 -10 11 -10 2 0 4 5 4 10 0 6 -5 10 -11 10 -5 0
-7 -4 -4 -10z"/>
<path d="M3896 7714 c-14 -14 -14 -17 0 -39 14 -22 18 -23 31 -10 8 8 19 15
24 15 6 0 7 5 4 10 -3 6 -18 10 -32 10 -21 0 -24 2 -13 15 16 20 6 19 -14 -1z"/>
<path d="M6146 7658 l19 -21 -28 18 c-15 10 -30 15 -33 13 -2 -3 7 -13 22 -23
18 -12 29 -14 37 -6 11 11 -7 41 -26 41 -5 0 -2 -10 9 -22z"/>
<path d="M5025 7700 c3 -5 -4 -14 -16 -20 -29 -16 -18 -23 16 -10 23 9 32 7
50 -10 12 -11 29 -20 39 -20 9 0 25 -4 34 -9 9 -4 31 -11 47 -15 24 -6 28 -5
18 5 -7 7 -13 25 -13 40 0 27 -1 27 -30 18 -16 -6 -30 -15 -30 -20 0 -5 -4 -9
-10 -9 -5 0 -10 7 -10 15 0 8 9 15 19 15 11 0 22 4 25 9 4 5 -9 5 -30 1 -24
-6 -49 -4 -75 6 -22 7 -37 9 -34 4z"/>
<path d="M4913 7615 c-10 -8 -13 -15 -7 -15 5 0 16 6 23 13 11 10 14 9 18 -1
5 -12 23 -7 23 6 0 14 -38 11 -57 -3z"/>
<path d="M4940 7581 c0 -6 5 -13 10 -16 6 -3 10 1 10 9 0 9 -4 16 -10 16 -5 0
-10 -4 -10 -9z"/>
<path d="M5150 7505 c0 -10 10 -15 30 -15 32 0 40 14 14 24 -27 10 -44 7 -44
-9z m37 -1 c-3 -3 -12 -4 -19 -1 -8 3 -5 6 6 6 11 1 17 -2 13 -5z"/>
<path d="M5238 7513 c7 -3 16 -2 19 1 4 3 -2 6 -13 5 -11 0 -14 -3 -6 -6z"/>
<path d="M5058 7503 c7 -3 16 -2 19 1 4 3 -2 6 -13 5 -11 0 -14 -3 -6 -6z"/>
<path d="M4905 7410 c-3 -5 -2 -10 4 -10 5 0 13 5 16 10 3 6 2 10 -4 10 -5 0
-13 -4 -16 -10z"/>
<path d="M4015 7600 c-8 -13 5 -13 25 0 13 8 13 10 -2 10 -9 0 -20 -4 -23 -10z"/>
<path d="M6847 4855 c-15 -14 -24 -25 -19 -25 9 0 52 37 52 45 0 8 -4 6 -33
-20z"/>
<path d="M6990 4860 c0 -11 5 -20 10 -20 6 0 10 9 10 20 0 11 -4 20 -10 20 -5
0 -10 -9 -10 -20z"/>
<path d="M6750 4780 c-9 -6 -10 -10 -3 -10 6 0 15 5 18 10 8 12 4 12 -15 0z"/>
<path d="M3430 4731 c0 -5 5 -13 10 -16 6 -3 10 -2 10 4 0 5 -4 13 -10 16 -5
3 -10 2 -10 -4z"/>
<path d="M3536 4714 c-22 -21 -20 -41 2 -21 15 13 20 14 42 2 30 -17 40 -18
40 -4 0 5 -4 8 -9 5 -4 -3 -16 3 -26 14 -22 24 -29 25 -49 4z"/>
<path d="M3635 4670 c3 -6 20 -17 36 -26 27 -13 29 -17 17 -32 -12 -15 -11
-16 4 -3 22 16 18 23 -28 50 -19 12 -32 16 -29 11z"/>
<path d="M4080 4411 c0 -5 7 -12 16 -15 14 -5 15 -4 4 9 -14 17 -20 19 -20 6z"/>
<path d="M5870 4235 c-19 -14 -30 -25 -25 -25 6 0 24 11 40 25 39 31 30 31
-15 0z"/>
<path d="M5769 4163 c-13 -16 -12 -17 4 -4 16 13 21 21 13 21 -2 0 -10 -8 -17
-17z"/>
<path d="M6075 5140 c-3 -5 -1 -10 5 -10 6 0 8 -5 4 -12 -4 -7 -3 -8 4 -4 6 4
9 13 5 21 -6 18 -10 19 -18 5z"/>
<path d="M6002 5093 c-24 -14 -41 -27 -38 -30 2 -2 26 9 52 26 59 37 47 41
-14 4z"/>
<path d="M6140 5110 c0 -5 5 -10 10 -10 6 0 10 5 10 10 0 6 -4 10 -10 10 -5 0
-10 -4 -10 -10z"/>
<path d="M4261 5053 c8 -9 9 -14 3 -10 -7 4 -15 0 -18 -9 -11 -29 -6 -37 14
-19 18 16 20 16 46 -4 14 -11 30 -18 35 -15 12 7 1 24 -15 24 -7 0 -23 11 -36
25 -26 28 -50 35 -29 8z"/>
<path d="M4275 4990 c3 -5 8 -10 11 -10 2 0 4 5 4 10 0 6 -5 10 -11 10 -5 0
-7 -4 -4 -10z"/>
<path d="M4385 4970 c-3 -5 -1 -10 4 -10 6 0 11 5 11 10 0 6 -2 10 -4 10 -3 0
-8 -4 -11 -10z"/>
<path d="M5585 5581 c-11 -5 -31 -21 -45 -36 -14 -15 -47 -43 -73 -62 -26 -20
-46 -38 -43 -41 3 -3 1 -12 -6 -19 -9 -11 -9 -16 1 -22 8 -5 1 -8 -18 -7 l-30
1 27 23 c35 31 6 22 -49 -15 -23 -15 -49 -33 -58 -38 -68 -43 -102 -70 -92
-73 6 -2 9 -8 6 -13 -4 -5 0 -6 8 -3 10 3 19 -5 26 -23 l11 -28 -3 33 c-2 17
0 32 5 32 18 0 23 -6 19 -25 -3 -19 -2 -19 17 -2 10 10 33 19 50 20 16 1 28 5
25 10 -2 4 -1 12 3 19 5 7 11 5 21 -8 13 -18 15 -18 24 -2 5 9 16 15 23 12 8
-3 20 4 26 17 9 15 14 18 20 9 11 -17 51 -3 43 16 -3 7 0 14 6 14 6 0 11 -4
11 -10 0 -5 5 -10 11 -10 6 0 8 9 4 20 -6 18 -2 20 31 20 49 0 86 43 47 53
-14 4 -14 5 3 6 14 1 24 -7 29 -21 4 -14 8 -18 12 -10 2 6 9 12 14 12 6 0 7
-4 4 -10 -3 -6 1 -7 10 -3 13 5 14 8 3 15 -10 7 -9 12 7 24 11 8 28 13 37 11
9 -3 25 5 35 17 l18 21 -25 -20 -25 -20 19 22 c10 13 22 20 27 17 5 -3 19 2
32 11 13 8 27 12 32 8 4 -5 5 -2 1 5 -4 7 -2 12 7 12 7 0 24 11 37 25 20 21
21 25 6 25 -11 0 -15 -4 -10 -12 6 -10 4 -10 -7 -3 -17 13 -286 18 -314 6z
m-251 -226 c-4 -8 -10 -12 -15 -9 -11 6 -2 24 11 24 5 0 7 -7 4 -15z m43 9
c-3 -3 -12 -4 -19 -1 -8 3 -5 6 6 6 11 1 17 -2 13 -5z m-77 -54 c0 -6 -7 -10
-16 -10 -8 0 -13 4 -9 9 3 5 0 13 -6 17 -8 4 -9 3 -5 -4 3 -6 -2 -16 -13 -21
-36 -20 -45 -11 -16 13 22 19 33 22 47 15 10 -5 18 -14 18 -19z"/>
<path d="M5320 5260 c0 -5 5 -10 11 -10 5 0 7 5 4 10 -3 6 -8 10 -11 10 -2 0
-4 -4 -4 -10z"/>
<path d="M5115 5250 c-3 -5 -13 -6 -21 -3 -14 5 -14 3 -3 -15 7 -12 13 -20 14
-19 0 1 9 12 19 25 11 12 14 22 8 22 -6 0 -13 -4 -17 -10z"/>
<path d="M5066 2670 c-63 -41 -84 -135 -46 -198 41 -67 120 -90 190 -54 101
50 108 191 14 253 -39 26 -119 25 -158 -1z"/>
<path d="M3980 2651 c0 -21 3 -53 6 -70 6 -31 7 -31 70 -31 74 0 104 20 104
70 0 51 -29 70 -110 70 l-70 0 0 -39z"/>
<path d="M4510 2620 l0 -70 65 0 c57 0 69 3 92 26 20 20 24 31 19 57 -9 46
-30 57 -108 57 l-68 0 0 -70z"/>
<path d="M5078 1832 l-37 -70 67 -4 c37 -2 69 -3 71 -1 2 1 -12 35 -30 74
l-34 72 -37 -71z"/>
<path d="M5610 1894 l0 -77 71 5 c92 7 114 30 96 100 -8 31 -49 48 -118 48
l-49 0 0 -76z"/>
<path d="M6160 1821 l0 -151 60 0 c106 0 170 54 170 143 0 93 -54 143 -165
154 l-65 6 0 -152z"/>
</g>
</svg>
